<?xml version="1.0" encoding="UTF-8" standalone="no"?>

<svg
   version="1.1"
   id="svg1"
   viewBox="110 125 480 360"
   xmlns="http://www.w3.org/2000/svg">
  <g
     id="g1">
    <g
       id="g5">
      <path
         id="path6"
         d="m 302.3899,322.0448 c 49.4964,-50.8349 49.4964,-133.2547 0,-184.0896 -49.4965,-50.83496 -129.7461,-50.83496 -179.2425,0 -49.49646,50.8349 -49.49646,133.2547 0,184.0896 49.4964,50.835 129.746,50.835 179.2425,0 z"
         style="fill:#5ac4f6;fill-opacity:1;fill-rule:nonzero;stroke:#1a1a2e;stroke-width:1;stroke-opacity:1;vector-effect:non-scaling-stroke"
         transform="matrix(1.3333333,0,0,-1.3333333,0,613.33333)"
         />
    </g>
    <g
       id="g8">
      <path
         id="path9"
         d="m 392.1046,322.0448 c 51.1099,-50.8349 51.1099,-133.2547 0,-184.0896 -51.1099,-50.83496 -133.9753,-50.83496 -185.0852,0 -51.1099,50.8349 -51.1099,133.2547 0,184.0896 51.1099,50.835 133.9753,50.835 185.0852,0 z"
         style="fill:#93e3fd;fill-opacity:0.5;fill-rule:nonzero;stroke:#1a1a2e;stroke-width:1;stroke-opacity:1;vector-effect:non-scaling-stroke"
         transform="matrix(1.3333333,0,0,-1.3333333,0,613.33333)"
         />
    </g>
    <g
       id="g10" />
    <g
       id="g11">
      <path
         id="path11"
         d="m 76.369905,-97.850759 c 2.015625,0.84375 3.685547,2.197265 5.015625,4.054687 1.327148,1.851563 2.124023,3.761719 2.390625,5.730469 0.263672,1.962891 -0.105469,3.738281 -1.113282,5.332031 -1.007812,1.587891 -2.786132,2.645508 -5.332031,3.175781 -4.883789,0.852539 -9.474609,1.227539 -13.769531,1.125 -4.297852,-0.108398 -8.036133,-0.164062 -11.214844,-0.164062 0,12.726562 0.04981,25.242187 0.152344,37.546875 0.108398,12.304687 0.05859,25.297851 -0.152344,38.9765624 0,2.97656248 -1.007812,5.1240234 -3.023437,6.4453125 C 47.307405,5.6990453 45.10428,6.2586156 42.713655,6.0476781 40.328889,5.8367406 38.131623,4.8787328 36.115998,3.1765844 34.100373,1.4802953 33.092561,-0.84880625 33.092561,-3.8195094 32.990022,-16.335134 32.940217,-28.795095 32.940217,-41.202322 c 0,-12.413086 0,-24.878906 0,-37.394531 -0.960937,0 -2.583984,0.05566 -4.863281,0.164062 -2.273438,0.102539 -4.766602,0.125977 -7.476563,0.07031 -2.704101,-0.05273 -5.490234,-0.263672 -8.355468,-0.632813 -2.8593753,-0.375 -5.3525394,-1.092773 -7.4765628,-2.15625 -1.6962891,-0.84375 -2.8095703,-2.085937 -3.3398438,-3.726562 -0.53320309,-1.646484 -0.55957027,-3.319336 -0.082031,-5.015625 0.4833984,-1.702149 1.359375,-3.295899 2.625,-4.78125 1.2714844,-1.482422 2.8652344,-2.490234 4.78125,-3.023438 8.9062496,-0.530273 17.5224606,-0.714843 25.8515626,-0.550781 8.326172,0.158203 16.787109,0.234375 25.382812,0.234375 2.545899,0 5.088867,-0.02637 7.628906,-0.08203 2.545899,-0.05273 5.147461,-0.08203 7.804688,-0.08203 z m 0,0"
         style="fill:#0042a9;fill-opacity:1;fill-rule:nonzero;stroke:none"
         aria-label="T"
         transform="matrix(1.3333333,0,0,1.3333333,288.23987,380.20987)"
         />
    </g>
    <g
       id="g12" />
    <g
       id="g13">
      <path
         id="path13"
         d="m 76.372234,-97.850705 c 2.015625,0.84375 3.685547,2.197266 5.015625,4.054688 1.327149,1.851562 2.124024,3.761719 2.390625,5.730469 0.263672,1.96289 -0.105468,3.738281 -1.113281,5.332031 -1.007812,1.58789 -2.786133,2.645508 -5.332031,3.175781 -4.883789,0.852539 -9.474609,1.227539 -13.769531,1.125 -4.297852,-0.108398 -8.036133,-0.164062 -11.214844,-0.164062 0,12.726562 0.0498,25.242187 0.152344,37.546875 0.108398,12.304687 0.05859,25.297851 -0.152344,38.9765621 0,2.97656246 -1.007813,5.1240234 -3.023438,6.4453125 C 47.309734,5.6991 45.106609,6.2586703 42.715984,6.0477328 40.331219,5.8367953 38.133953,4.8787875 36.118328,3.1766391 34.102703,1.48035 33.094891,-0.84875156 33.094891,-3.8194547 32.992352,-16.33508 32.942547,-28.795041 32.942547,-41.202267 c 0,-12.413086 0,-24.878906 0,-37.394531 -0.960938,0 -2.583984,0.05566 -4.863281,0.164062 -2.273438,0.102539 -4.766602,0.125977 -7.476563,0.07031 -2.704101,-0.05273 -5.490234,-0.263672 -8.355469,-0.632813 -2.8593746,-0.375 -5.3525387,-1.092773 -7.4765621,-2.15625 -1.6962891,-0.84375 -2.8095703,-2.085937 -3.3398438,-3.726562 -0.5332031,-1.646485 -0.55957029,-3.319336 -0.082031,-5.015625 0.4833984,-1.702149 1.359375,-3.295899 2.625,-4.78125 1.2714844,-1.482422 2.8652344,-2.490235 4.78125,-3.023438 8.9062499,-0.530273 17.5224609,-0.714844 25.8515619,-0.550781 8.326172,0.158203 16.78711,0.234375 25.382813,0.234375 2.545898,0 5.088867,-0.02637 7.628906,-0.08203 2.545899,-0.05273 5.147461,-0.08203 7.804688,-0.08203 z m 0,0"
         style="fill:#1a0a52;fill-opacity:1;fill-rule:nonzero;stroke:none"
         aria-label="T"
         transform="matrix(1.3333333,0,0,1.3333333,277.99067,370.1512)"
         />
    </g>
  </g>
</svg>
